HIERARCHY
ROOT hip
{
  OFFSET 0.00112043 5.09927 -9.65472
  CHANNELS 6 Xposition Yposition Zposition Zrotation Xrotation Yrotation
  JOINT abdomen
  {
    OFFSET 0 -1.186 -1.5018
    CHANNELS 3 Zrotation Xrotation Yrotation
    JOINT abdomen2
    {
      OFFSET 0 9.964 0.2134
      CHANNELS 3 Zrotation Xrotation Yrotation
      JOINT chest
      {
        OFFSET 0 13.134 -3.2573
        CHANNELS 3 Zrotation Xrotation Yrotation
        JOINT neck
        {
          OFFSET 0 20.686 -1.6905
          CHANNELS 3 Zrotation Xrotation Yrotation
          JOINT head
          {
            OFFSET 0 7.238 -0.1237
            CHANNELS 3 Zrotation Xrotation Yrotation
            End Site
            {
              OFFSET 0 0 0
            }
          }
        }
        JOINT lCollar
        {
          OFFSET 1.7069 20.075 5.0056
          CHANNELS 3 Zrotation Xrotation Yrotation
          JOINT lShldr
          {
            OFFSET 13.6458 -0.047 -4.849
            CHANNELS 3 Zrotation Xrotation Yrotation
            JOINT lForeArm
            {
              OFFSET 28.3255 -0.9759 2.2888
              CHANNELS 3 Zrotation Xrotation Yrotation
              JOINT lHand
              {
                OFFSET 22.1583 -0.53 10.8316
                CHANNELS 3 Zrotation Xrotation Yrotation
                JOINT lThumb1
                {
                  OFFSET 0.786 0.112 2.5817
                  CHANNELS 3 Zrotation Xrotation Yrotation
                  JOINT lThumb2
                  {
                    OFFSET 0.3601 -0.878 4.2331
                    CHANNELS 3 Zrotation Xrotation Yrotation
                    JOINT lThumb2_End
                    {
                      OFFSET 1.8127 -1.216 2.2227
                      CHANNELS 3 Zrotation Xrotation Yrotation
                      End Site
                      {
                        OFFSET 0.0181 -0.0122 0.0222
                      }
                    }
                  }
                }
                JOINT lCarpal1
                {
                  OFFSET 0.9571 1.114 1.7695
                  CHANNELS 3 Zrotation Xrotation Yrotation
                  JOINT lIndex1
                  {
                    OFFSET 4.1246 0.487 4.1451
                    CHANNELS 3 Zrotation Xrotation Yrotation
                    JOINT lIndex2
                    {
                      OFFSET 3.4052 -1.454 2.7682
                      CHANNELS 3 Zrotation Xrotation Yrotation
                      JOINT lIndex2_End
                      {
                        OFFSET 1.4531 -1.795 1.2713
                        CHANNELS 3 Zrotation Xrotation Yrotation
                        End Site
                        {
                          OFFSET 0.0145 -0.0179 0.0127
                        }
                      }
                    }
                  }
                  JOINT lMid1
                  {
                    OFFSET 5.6954 0.21 2.1184
                    CHANNELS 3 Zrotation Xrotation Yrotation
                    JOINT lMid2
                    {
                      OFFSET 3.9766 -1.54 2.3863
                      CHANNELS 3 Zrotation Xrotation Yrotation
                      JOINT lMid2_End
                      {
                        OFFSET 1.4042 -1.926 1.125
                        CHANNELS 3 Zrotation Xrotation Yrotation
                        End Site
                        {
                          OFFSET 0.014 -0.0193 0.0113
                        }
                      }
                    }
                  }
                }
                JOINT lCarpal2
                {
                  OFFSET 2.0956 0.66 -0.3894
                  CHANNELS 3 Zrotation Xrotation Yrotation
                  JOINT lRing1
                  {
                    OFFSET 5.0395 -0.09 2.4971
                    CHANNELS 3 Zrotation Xrotation Yrotation
                    JOINT lRing2
                    {
                      OFFSET 3.7921 -1.552 1.4806
                      CHANNELS 3 Zrotation Xrotation Yrotation
                      JOINT lRing2_End
                      {
                        OFFSET 1.4655 -1.808 0.9609
                        CHANNELS 3 Zrotation Xrotation Yrotation
                        End Site
                        {
                          OFFSET 0.0147 -0.0181 0.0096
                        }
                      }
                    }
                  }
                  JOINT lPinky1
                  {
                    OFFSET 4.9141 -1.269 0.3591
                    CHANNELS 3 Zrotation Xrotation Yrotation
                    JOINT lPinky2
                    {
                      OFFSET 3.1477 -1.685 0.8462
                      CHANNELS 3 Zrotation Xrotation Yrotation
                      JOINT lPinky2_End
                      {
                        OFFSET 0.8055 -1.585 0.7955
                        CHANNELS 3 Zrotation Xrotation Yrotation
                        End Site
                        {
                          OFFSET 0.0081 -0.0158 0.008
                        }
                      }
                    }
                  }
                }
              }
            }
          }
        }
        JOINT rCollar
        {
          OFFSET -1.7069 20.075 5.0056
          CHANNELS 3 Zrotation Xrotation Yrotation
          JOINT rShldr
          {
            OFFSET -13.6458 -0.047 -4.849
            CHANNELS 3 Zrotation Xrotation Yrotation
            JOINT rForeArm
            {
              OFFSET -28.3255 -0.9759 2.2888
              CHANNELS 3 Zrotation Xrotation Yrotation
              JOINT rHand
              {
                OFFSET -22.1583 -0.53 10.8316
                CHANNELS 3 Zrotation Xrotation Yrotation
                JOINT rThumb1
                {
                  OFFSET -0.786 0.112 2.5817
                  CHANNELS 3 Zrotation Xrotation Yrotation
                  JOINT rThumb2
                  {
                    OFFSET -0.3601 -0.878 4.2331
                    CHANNELS 3 Zrotation Xrotation Yrotation
                    JOINT rThumb2_End
                    {
                      OFFSET -1.8127 -1.216 2.2227
                      CHANNELS 3 Zrotation Xrotation Yrotation
                      End Site
                      {
                        OFFSET -0.0181 -0.0122 0.0222
                      }
                    }
                  }
                }
                JOINT rCarpal1
                {
                  OFFSET -0.9571 1.114 1.7695
                  CHANNELS 3 Zrotation Xrotation Yrotation
                  JOINT rIndex1
                  {
                    OFFSET -4.1246 0.487 4.1451
                    CHANNELS 3 Zrotation Xrotation Yrotation
                    JOINT rIndex2
                    {
                      OFFSET -3.4052 -1.454 2.7682
                      CHANNELS 3 Zrotation Xrotation Yrotation
                      JOINT rIndex2_End
                      {
                        OFFSET -1.4531 -1.795 1.2713
                        CHANNELS 3 Zrotation Xrotation Yrotation
                        End Site
                        {
                          OFFSET -0.0145 -0.018 0.0127
                        }
                      }
                    }
                  }
                  JOINT rMid1
                  {
                    OFFSET -5.6954 0.21 2.1184
                    CHANNELS 3 Zrotation Xrotation Yrotation
                    JOINT rMid2
                    {
                      OFFSET -3.9766 -1.54 2.3863
                      CHANNELS 3 Zrotation Xrotation Yrotation
                      JOINT rMid2_End
                      {
                        OFFSET -1.4042 -1.926 1.125
                        CHANNELS 3 Zrotation Xrotation Yrotation
                        End Site
                        {
                          OFFSET -0.014 -0.0193 0.0113
                        }
                      }
                    }
                  }
                }
                JOINT rCarpal2
                {
                  OFFSET -2.0956 0.66 -0.3894
                  CHANNELS 3 Zrotation Xrotation Yrotation
                  JOINT rRing1
                  {
                    OFFSET -5.0395 -0.09 2.4971
                    CHANNELS 3 Zrotation Xrotation Yrotation
                    JOINT rRing2
                    {
                      OFFSET -3.7921 -1.552 1.4806
                      CHANNELS 3 Zrotation Xrotation Yrotation
                      JOINT rRing2_End
                      {
                        OFFSET -1.4655 -1.808 0.9609
                        CHANNELS 3 Zrotation Xrotation Yrotation
                        End Site
                        {
                          OFFSET -0.0147 -0.0181 0.0096
                        }
                      }
                    }
                  }
                  JOINT rPinky1
                  {
                    OFFSET -4.9141 -1.269 0.3592
                    CHANNELS 3 Zrotation Xrotation Yrotation
                    JOINT rPinky2
                    {
                      OFFSET -3.1477 -1.685 0.8462
                      CHANNELS 3 Zrotation Xrotation Yrotation
                      JOINT rPinky2_End
                      {
                        OFFSET -0.8055 -1.585 0.7955
                        CHANNELS 3 Zrotation Xrotation Yrotation
                        End Site
                        {
                          OFFSET -0.0081 -0.0158 0.008
                        }
                      }
                    }
                  }
                }
              }
            }
          }
        }
      }
    }
  }
  JOINT lThigh
  {
    OFFSET 8.367 -8.2066 0.5982
    CHANNELS 3 Zrotation Xrotation Yrotation
    JOINT lShin
    {
      OFFSET 2.1923 -43.463 -0.4932
      CHANNELS 3 Zrotation Xrotation Yrotation
      JOINT lFoot
      {
        OFFSET 0.7333 -45.8593 -2.6451
        CHANNELS 3 Zrotation Xrotation Yrotation
        End Site
        {
          OFFSET 2.6618 -4.2699 12.3931
        }
      }
    }
  }
  JOINT rThigh
  {
    OFFSET -8.367 -8.2066 0.5982
    CHANNELS 3 Zrotation Xrotation Yrotation
    JOINT rShin
    {
      OFFSET -2.1923 -43.463 -0.4931
      CHANNELS 3 Zrotation Xrotation Yrotation
      JOINT rFoot
      {
        OFFSET -0.7333 -45.8593 -2.6451
        CHANNELS 3 Zrotation Xrotation Yrotation
        End Site
        {
          OFFSET -2.6618 -4.2699 12.3931
        }
      }
    }
  }
}
MOTION
Frames:	4
Frame Time:	0.0333333
0 91.7903 2.51682 0 0 -0 0 0 -0 0 0 -0 0 0 -0 0 0 -0 0 0 -0 0 0 -0 1.66051 0.0835086 5.75766 -0.0175111 0.895433 15.7816 7.95139e-016 -1.98785e-016 -0 5.46658e-016 -3.97569e-016 -0 5.96354e-016 0 -0 3.97569e-016 1.98785e-016 9.54166e-015 1.49089e-016 -3.97569e-016 -0 6.4605e-016 0 3.18055e-015 5.96354e-016 0 3.18055e-015 8.94531e-016 -1.98785e-016 6.36111e-015 6.4605e-016 0 3.18055e-015 5.96354e-016 0 3.18055e-015 8.94531e-016 -1.98785e-016 6.36111e-015 1.49089e-016 -3.97569e-016 -0 6.4605e-016 0 3.18055e-015 5.96354e-016 0 3.18055e-015 8.94531e-016 -1.98785e-016 6.36111e-015 6.4605e-016 0 3.18055e-015 5.96354e-016 0 3.18055e-015 8.94531e-016 -1.98785e-016 6.36111e-015 0 0 -0 -1.4496 0.0636048 -5.0245 -1.74811 1.20616 -16.8394 -1.19271e-015 1.98785e-016 -3.18055e-015 -3.97569e-016 1.98785e-016 -3.18055e-015 -2.98177e-016 1.98785e-016 -3.18055e-015 -2.98177e-016 3.97569e-016 -0 4.96962e-016 0 -6.36111e-015 -9.93923e-017 3.97569e-016 -0 -8.94531e-016 5.96354e-016 -0 -3.97569e-016 3.97569e-016 -0 -9.93923e-017 3.97569e-016 -0 -8.94531e-016 5.96354e-016 -0 -3.97569e-016 3.97569e-016 -0 4.96962e-016 0 -6.36111e-015 -9.93923e-017 3.97569e-016 -0 -8.94531e-016 5.96354e-016 -0 -3.97569e-016 3.97569e-016 -0 -9.93923e-017 3.97569e-016 -0 -8.94531e-016 5.96354e-016 -0 -3.97569e-016 3.97569e-016 -0 -4.66111 -0.998717 0.12318 0.00986924 1.54847 0.176523 4.65186 -0.572283 -0.254274 4.66111 -0.998765 -0.123176 -0.00986867 1.54869 -0.176537 -4.65186 -0.572453 0.25427 
1.62406 35.8645 7.27237 -2.89582 14.2507 -168.388 -0.649214 19.2368 0.0355446 -1.4471 38.4717 0.35158 -1.4471 38.4717 0.35158 5.41532e-006 -0.313642 3.33243e-006 0.478325 -0.832966 0.0622258 -12.3237 -19.641 -19.371 -23.9147 18.8374 -72.188 11.4635 -13.6307 19.1509 47.4269 -8.45071 -6.22996 1.66979e-014 -1.59028e-015 -0 -5.08701e-007 1.54494e-006 5.16882e-007 3.08988e-006 1.0174e-006 1.08375e-007 1.03368e-014 3.18055e-015 -0 7.15625e-015 3.18055e-015 1.59028e-014 -5.08701e-007 1.54494e-006 5.16882e-007 3.08988e-006 1.0174e-006 1.08375e-007 7.15625e-015 3.18055e-015 1.59028e-014 -5.08701e-007 1.54494e-006 5.16882e-007 3.08988e-006 1.0174e-006 1.08375e-007 1.03368e-014 3.18055e-015 -0 7.15625e-015 3.18055e-015 1.59028e-014 -5.08701e-007 1.54494e-006 5.16882e-007 3.08988e-006 1.0174e-006 1.08375e-007 7.15625e-015 3.18055e-015 1.59028e-014 -5.08701e-007 1.54494e-006 5.16882e-007 3.08988e-006 1.0174e-006 1.08375e-007 10.6924 -19.7645 16.9504 24.1337 19.3897 73.9253 -13.1411 -13.1276 -20.0876 -41.6373 -8.35472 5.9512 3.18055e-015 1.59028e-015 -6.36111e-015 8.11788e-007 1.4108e-006 -4.63771e-007 3.18055e-015 4.77083e-015 3.18055e-015 6.36111e-015 1.59028e-015 3.18055e-015 3.18055e-015 -3.18055e-015 -0 8.11788e-007 1.4108e-006 -4.63771e-007 7.06225e-031 -3.18055e-015 1.27222e-014 3.18055e-015 -3.18055e-015 -0 8.11788e-007 1.4108e-006 -4.63771e-007 7.06225e-031 -3.18055e-015 1.27222e-014 6.36111e-015 1.59028e-015 3.18055e-015 3.18055e-015 -3.18055e-015 -0 8.11788e-007 1.4108e-006 -4.63771e-007 7.06225e-031 -3.18055e-015 1.27222e-014 3.18055e-015 -3.18055e-015 -0 8.11788e-007 1.4108e-006 -4.63771e-007 7.06225e-031 -3.18055e-015 1.27222e-014 94.5662 -46.599 107.359 163.637 70.0015 -160.791 3.0898 -10.1845 1.46429 -94.5246 -46.4898 -107.393 -163.575 69.9917 160.732 -3.17239 -10.1963 -1.41511 
1.06099 38.0598 6.88037 -8.56553e-015 12.4475 -180 -0.603615 17.3158 0.0255121 -1.31318 34.6302 0.273448 -1.31318 34.6302 0.273448 -1.75915e-005 -0.293675 -3.67852e-007 0.928662 -1.6302 0.282347 -11.1165 -16.9472 -17.738 -23.5173 21.2387 -68.5302 10.745 -12.7752 18.9453 43.8829 -7.62459 -5.88403 -9.54166e-015 0 -0 3.40986e-007 -7.3782e-007 -2.48891e-007 -3.40986e-007 7.3782e-007 2.48891e-007 -9.54166e-015 0 -0 3.18055e-015 3.18055e-015 6.36111e-015 3.40986e-007 -7.3782e-007 -2.48891e-007 -3.40986e-007 7.3782e-007 2.48891e-007 3.18055e-015 3.18055e-015 6.36111e-015 3.40986e-007 -7.3782e-007 -2.48891e-007 -3.40986e-007 7.3782e-007 2.48891e-007 -9.54166e-015 0 -0 3.18055e-015 3.18055e-015 6.36111e-015 3.40986e-007 -7.3782e-007 -2.48891e-007 -3.40986e-007 7.3782e-007 2.48891e-007 3.18055e-015 3.18055e-015 6.36111e-015 3.40986e-007 -7.3782e-007 -2.48891e-007 -3.40986e-007 7.3782e-007 2.48891e-007 9.79689 -17.0246 15.7047 23.7311 21.9205 70.3135 -12.432 -12.2839 -19.89 -38.4336 -7.37582 5.71326 -1.57438e-007 -1.75604e-006 -5.5088e-006 -1.56847e-006 4.31775e-006 -1.41021e-006 1.53208e-006 4.69915e-006 4.56183e-006 -7.06225e-031 -3.18055e-015 -1.27222e-014 -1.57438e-007 -1.75604e-006 -5.5088e-006 -1.56847e-006 4.31775e-006 -1.41021e-006 1.53208e-006 4.69915e-006 4.56183e-006 -1.57438e-007 -1.75604e-006 -5.5088e-006 -1.56847e-006 4.31775e-006 -1.41021e-006 1.53208e-006 4.69915e-006 4.56183e-006 -7.06225e-031 -3.18055e-015 -1.27222e-014 -1.57438e-007 -1.75604e-006 -5.5088e-006 -1.56847e-006 4.31775e-006 -1.41021e-006 1.53208e-006 4.69915e-006 4.56183e-006 -1.57438e-007 -1.75604e-006 -5.5088e-006 -1.56847e-006 4.31775e-006 -1.41021e-006 1.53208e-006 4.69915e-006 4.56183e-006 90.5577 -49.8573 104.982 159.827 75.227 -157.608 3.40289 -9.18868 1.32838 -90.5313 -49.7656 -105.027 -159.757 75.2177 157.541 -3.47423 -9.19968 -1.2863 
1.06093 37.0361 6.82549 -8.41642e-015 11.2814 -180 -0.595768 16.5675 0.00878249 -1.28068 33.1339 0.221699 -1.28068 33.1339 0.221699 -2.65804e-005 -0.292166 -3.37778e-006 1.38563 -2.43082 0.501343 -11.0371 -15.3781 -17.3922 -23.5173 21.2387 -68.5302 10.745 -12.7753 18.9453 43.2866 -7.14931 -5.56451 -3.41088e-007 7.37958e-007 2.4861e-007 1.98888e-006 -6.29928e-007 2.7287e-006 -1.11319e-014 3.18055e-015 3.18055e-015 5.29669e-031 -3.18055e-015 9.54166e-015 -3.41088e-007 7.37958e-007 2.4861e-007 1.98888e-006 -6.29928e-007 2.7287e-006 -1.27222e-014 3.18055e-015 3.18055e-015 -3.41088e-007 7.37958e-007 2.4861e-007 1.98888e-006 -6.29928e-007 2.7287e-006 -1.27222e-014 3.18055e-015 3.18055e-015 5.29669e-031 -3.18055e-015 9.54166e-015 -3.41088e-007 7.37958e-007 2.4861e-007 1.98888e-006 -6.29928e-007 2.7287e-006 -1.27222e-014 3.18055e-015 3.18055e-015 -3.41088e-007 7.37958e-007 2.4861e-007 1.98888e-006 -6.29928e-007 2.7287e-006 -1.27222e-014 3.18055e-015 3.18055e-015 9.87067 -15.446 15.5719 23.7311 21.9205 70.3135 -12.432 -12.2839 -19.8899 -37.8152 -6.79527 5.54101 -4.44631e-006 -1.17153e-006 -3.10014e-006 6.88101e-007 1.47123e-006 -4.74537e-007 1.3762e-006 2.94247e-006 -9.49075e-007 0 0 -0 -4.44631e-006 -1.17153e-006 -3.10014e-006 6.88101e-007 1.47123e-006 -4.74537e-007 1.3762e-006 2.94247e-006 -9.49075e-007 -4.44631e-006 -1.17153e-006 -3.10014e-006 6.88101e-007 1.47123e-006 -4.74537e-007 1.3762e-006 2.94247e-006 -9.49075e-007 0 0 -0 -4.44631e-006 -1.17153e-006 -3.10014e-006 6.88101e-007 1.47123e-006 -4.74537e-007 1.3762e-006 2.94247e-006 -9.49075e-007 -4.44631e-006 -1.17153e-006 -3.10014e-006 6.88101e-007 1.47123e-006 -4.74537e-007 1.3762e-006 2.94247e-006 -9.49075e-007 94.1755 -49.6718 108.959 160.807 74.3067 -158.459 3.75912 -8.69748 1.55532 -94.1443 -49.5879 -108.992 -160.747 74.2987 158.401 -3.82389 -8.70745 -1.51693 
